# xmcd
#
# Track frame offsets: 
#        150
#        19590
#        41654
#        62437
#        81449
#        100683
#        126378
#        145870
#        165862
#        191355
#        218125
#        245235
#
# Disc length: 3774 seconds
#
# Revision: 0
# Processed by: cddbd v1.5.2PL0 Copyright (c) Steve Scherf et al.
# Submitted via: ExactAudioCopy v0.99pb5
#
DISCID=9f0ebc0c
DTITLE=Rick Simcox and The Tone Questers - Treat You Baby
DYEAR=2009
DGENRE=Blues
TTITLE0=Swear To Tell The Truth
TTITLE1=G-Swing Stomp
TTITLE2=Good Morning Schoolgirl
TTITLE3=Ironic Twist
TTITLE4=Piece Of Work
TTITLE5=T-Bone Blues
TTITLE6=Walkin' To My Baby
TTITLE7=Just A Little Bit
TTITLE8=Treat You Baby
TTITLE9=Good Morning Schoolgirl
TTITLE10=Ironic Twist
TTITLE11=Delta Thing
EXTD=
EXTT0=
EXTT1=
EXTT2=
EXTT3=
EXTT4=
EXTT5=
EXTT6=
EXTT7=
EXTT8=
EXTT9=
EXTT10=
EXTT11=
PLAYORDER=
